<svg xmlns="http://www.w3.org/2000/svg" version="1.1" xmlns:xlink="http://www.w3.org/1999/xlink" xmlns:svgjs="http://svgjs.dev/svgjs" width="1500" height="1500" viewBox="0 0 1500 1500"><rect width="1500" height="1500" fill="#ffffff"></rect><g transform="matrix(0.6666666666666666,0,0,0.6666666666666666,250.00007343750008,187.66666666666674)"><svg viewBox="0 0 320 360" data-background-color="#2e5eda" preserveAspectRatio="xMidYMid meet" height="1687" width="1500" xmlns="http://www.w3.org/2000/svg" xmlns:xlink="http://www.w3.org/1999/xlink"><g id="tight-bounds" transform="matrix(1,0,0,1,0.000023499999997511622,0)"><svg viewBox="0 0 320 360" height="360" width="320"><g><svg></svg></g><g><svg viewBox="0 0 320 360" height="360" width="320"><g><path transform="translate(-74.99272,-51.79039) scale(4.65793,4.65793)" d="M20.6 59.9l0.8 1-0.4-1.3c-0.1-0.6-0.8 0.1-0.4 0.3M21.5 59.3c0.3 0.5 0.6 1 0.6 1.5 0 0.7 0.6 1 1.1 1.2-0.7-0.8-1.1-3-1.7-2.7M59.9 16.9c1.7 0 3.3-0.2 5.1 0.2 4.4 1.1 8.1 3.3 10.6 6.4l7 11.2c0.3 2.8 0.9 5.9 0.8 9.3 0.7 0 0.6-1 1.4-1.2-0.8 2-1.2 4.5-1.4 7.4-0.5-1.6 0-4 0.1-5.3-0.7 1.1-1.1 0.3-1.1-0.2 0.1-0.8-0.3-0.7-0.6-1-1.1-1-1.8-2.1-2.6-3.8 0.5-1.3 0.6-3.2-1-4.2-0.5-0.3-1.1-0.8-1.4-1.6-0.4-1.1-1.1-2.4-0.9-4.1 0.1-0.5-1.5 1.1-2.4 0.4-3.9-2.7-7.8-5.8-12.5-8.4-2.5 0-4.3-0.9-5.2-2-0.8-1-0.2-2.3 1-2.4 0.7 0 1.5-0.2 2.1 0.2 0.1-0.4 0.5-0.9 1-0.9M50 14.6l0.2 0.1c1 0.2 1.5 1.6 2.6 1.1 0 0.7 0.1 1.4-0.1 1.9-0.3 0.8-1.2 0.8-1.9 0.8-6.7-0.4-10.6 2.4-14.7 4.8-1.1 0.7-2.3 1.2-3.2 2.1-4.3 4-9 7.7-10.1 15.1l-0.9 8.2c-0.1 0.9-1.1 1.8-0.9 2.9l0.7 4.9c-0.7-0.7-1.1 0.2-0.9 0.6 0.1 0.3 0.5 1.3 1.1 0.4 0.8 1.5 1.6 4.4 2.7 5.7 3.4 4 7.8 7.6 11.4 11.2 0.9-0.2 1.6-0.2 1.8-0.8 0.3 0.6-0.3 1.2-0.8 1.3 1.6 1 3.4 1.9 5.8 2.1 3.1 0.2 6 0.7 8.7 1.4 1.4-0.4 2.8-0.6 4.3-0.7 0.5 0 0.8-0.8 1.4-1l0.1-1c0.6 0.9 0.5-0.3 0.1-0.9 0.7 0.6 0.9 1.1 1.2 1.5 0-0.3 0.8-1.4 0.8-0.1l0.2-1.3c0.3-0.2 0.4 1.1 0.7 0.2 0.3-0.9 0.9-0.2 1.5-0.5-0.2 0.4-0.1 1.2 0.6 0.7l0.8-0.7c0.5 1.2 1.3 0.7 1.7 0.5 4.4-2.8 8.8-6.1 13-9.4l-0.1 1.3 0.5-1.6c0.5 0.5 0.9 0.1 1.1-0.2 0.6-1 1.4-2 2.7-2.9-1.6 4.3-3.5 7.7-5.9 10.5l-1 1.2c0 0.7-0.2 1.6-1 1.7-0.4 0.1-1.2-0.2-1.8 0.4-0.3 0.4 0.7 1.2-0.1 0.6-0.7-0.5-1.4 0-2.2 0.2-0.6 0.2 0.4 0.8 0.6 1.2 0.2 0.4 0.4 0.8 0.3 1.3l-1.1-1.2c-1.3 0.7-2.1 2-3.2 3-0.5 0.4-0.3 1.1-0.3 1.7-0.7 0-1.5-0.2-1.9 0.2-0.3 0.4-0.2 1-0.2 1.6-1-0.1-1.1-1.6-2-1.3-0.9 0.2-1.9 0.3-2.7 0.8 0.6 1.2-1 0.5-0.8 0.7-1.5-0.9-2.8-1.6-4.4-1-3.4-1.1-7.6-0.6-10.7-0.2 0-0.5 0.1-1-0.1-1.1-0.2 0.5-0.8 0.3-0.7 0.3-1.9-1.3-3.8-2.1-5.8-3.2-1.8 0.2-3.5-0.7-4-1.2-1.4-1.3-3-0.6-4.3-0.9-2.8-0.7-3.8-3.6-4.1-5.6-0.2-1-1-1.4-1.3-1.3-1.3-4.2-3.3-8-4.9-11.9-0.4-1-0.3-2-0.3-3.1 0.5 0.2 1 0.1 0.9-0.6-0.5-3.3-1.7-5.8-3-8.2 0.7-3.4 0.8-7.4 2.4-10.4 1.4-2.7 4-4.1 5.8-6.4 0.6-0.8 0.6-1.9 1.2-2.6 2-2 4-4.1 6.2-5.9 1-0.8 2.2 0 3.7-0.3 0.5-1.8 2.5-3.4 4.4-2.9 0.8 0.2 2.4-1.9 2.9-2.1 0.8-0.3 0.4 0.8 0.4 1.5 1.9-1.5 4.5-2.3 6.9-3.2" fill="#000000" fill-rule="nonzero" stroke="none" stroke-width="1" stroke-linecap="butt" stroke-linejoin="miter" stroke-miterlimit="10" stroke-dasharray="" stroke-dashoffset="0" font-family="none" font-weight="none" font-size="none" text-anchor="none" style="mix-blend-mode: normal" data-fill-palette-color="tertiary"></path></g><g transform="matrix(1,0,0,1,64,129.1396374308253)"><svg viewBox="0 0 192 101.72072513834942" height="101.72072513834942" width="192"><g><svg viewBox="0 0 192 101.72072513834942" height="101.72072513834942" width="192"><g><svg viewBox="0 0 192 101.72072513834942" height="101.72072513834942" width="192"><g transform="matrix(1,0,0,1,0,50.658834111254734)"><svg viewBox="0 0 192 51.06189102709469" height="51.06189102709469" width="192"><g id="textblocktransform"><svg viewBox="0 0 192 51.06189102709469" height="51.06189102709469" width="192" id="textblock"><g><svg viewBox="0 0 192 34.51031588763259" height="34.51031588763259" width="192"><g transform="matrix(1,0,0,1,0,0)"><svg width="192" viewBox="1.95 -36.84 209.43 37.650000000000006" height="34.51031588763259" data-palette-color="#f7e1e1"><path d="M26.49-9.25L29.39-9.25 29.39-1.15Q29.27-1.1 27.84-0.61 26.42-0.12 24.19 0.34 21.97 0.81 19.41 0.81L19.41 0.81Q15.21 0.81 11.96-0.65 8.72-2.1 6.48-4.59 4.25-7.08 3.1-10.24 1.95-13.4 1.95-16.85L1.95-16.85Q1.95-22.02 4.15-25.96 6.35-29.91 10.29-32.13 14.23-34.35 19.46-34.35L19.46-34.35Q21.9-34.35 24.13-33.84 26.37-33.33 29.39-32.4L29.39-32.4 29.39-24.56 26.39-24.56 25.66-29.1Q25.56-29.52 25.29-29.83 25.02-30.15 24.8-30.25L24.8-30.25 24.61-30.35Q23.97-30.64 22.71-31.09 21.44-31.54 19.7-31.54L19.7-31.54Q16.31-31.54 13.59-29.87 10.86-28.2 9.28-24.93 7.69-21.66 7.69-16.85L7.69-16.85Q7.69-9.86 11.06-5.91 14.43-1.95 20.36-1.95L20.36-1.95Q22.12-1.95 23.22-2.37 24.32-2.78 24.39-2.81L24.39-2.81Q25.17-3.1 25.34-3.81L25.34-3.81 26.49-9.25ZM55.95-1.95L55.95 0 48.56 0 47.9-2.95Q47.9-2.95 47.15-2.42 46.41-1.88 45.19-1.17 43.97-0.46 42.49 0.07 41.01 0.61 39.55 0.61L39.55 0.61Q36.84 0.61 34.95-1.2 33.05-3 33.05-6.15L33.05-6.15Q33.05-7.54 33.55-8.74 34.06-9.94 35.56-11.02 37.06-12.11 40.02-13.15 42.99-14.18 47.9-15.26L47.9-15.26 47.9-17.41Q47.9-22.34 43.23-22.34L43.23-22.34Q41.94-22.34 41-22.09 40.06-21.85 39.69-21.7L39.69-21.7 39.69-17.36 36.06-17.36Q35.37-17.36 34.79-17.61 34.2-17.87 34.2-18.8L34.2-18.8Q34.2-20.85 35.76-22.16 37.33-23.46 39.73-24.08 42.14-24.71 44.6-24.71L44.6-24.71Q47.7-24.71 49.41-23.74 51.12-22.78 51.8-21.08 52.49-19.38 52.49-17.21L52.49-17.21 52.49-3.2Q52.49-2.73 52.79-2.44 53.1-2.15 53.54-2.1L53.54-2.1 55.95-1.95ZM47.9-4.71L47.9-4.71 47.9-13.35Q44.53-12.52 42.54-11.68 40.55-10.84 39.57-10 38.6-9.16 38.29-8.29 37.99-7.42 37.99-6.49L37.99-6.49Q37.99-4.96 38.97-3.65 39.96-2.34 41.75-2.34L41.75-2.34Q42.75-2.34 43.82-2.7 44.89-3.05 45.82-3.53 46.75-4 47.32-4.36 47.9-4.71 47.9-4.71ZM75.83-23.95L75.83-18.99 73.87-18.99Q73.41-19.56 72.76-19.96 72.11-20.36 71.19-20.36L71.19-20.36Q69.99-20.36 68.73-19.53 67.48-18.7 66.18-17.26L66.18-17.26 66.18-3.2Q66.18-2.15 67.23-2.1L67.23-2.1 70.53-1.95 70.53 0 58.03 0 58.03-1.9 60.49-2.1Q60.93-2.15 61.24-2.44 61.54-2.73 61.54-3.2L61.54-3.2 61.54-20.56 57.93-20.56 57.93-22.19 64.13-24.1 66.18-24.1 66.18-19.65Q66.91-20.46 68.01-21.66 69.11-22.85 70.36-23.78 71.6-24.71 72.77-24.71L72.77-24.71Q73.55-24.71 74.46-24.46 75.36-24.22 75.83-23.95L75.83-23.95ZM122.38-33.54L122.38-31.4 119.33-30.81 111.69 0.81 108.02 0.81 99.68-26.9 91.5 0.81 87.88 0.81 79.73-30.81 76.82-31.4 76.82-33.54 88.27-33.54 88.27-31.4 85.3-31.1Q84.73-31.03 84.73-30.37L84.73-30.37Q84.73-30.3 84.78-30.1L84.78-30.1 90.74-7.54 98.58-33.54 102.43-33.54 110.49-6.74 116.03-30.1Q116.06-30.15 116.06-30.27L116.06-30.27Q116.06-31.03 115.32-31.1L115.32-31.1 112.18-31.4 112.18-33.54 122.38-33.54ZM148.38-12.01L148.38-12.01Q148.38-8.47 146.91-5.6 145.45-2.73 142.78-1.06 140.1 0.61 136.44 0.61L136.44 0.61Q132.8 0.61 130.14-1.05 127.48-2.71 126.04-5.57 124.6-8.42 124.6-12.01L124.6-12.01Q124.6-15.58 126.05-18.46 127.5-21.34 130.2-23.02 132.9-24.71 136.59-24.71L136.59-24.71Q140.32-24.71 142.96-23 145.6-21.29 146.99-18.41 148.38-15.53 148.38-12.01ZM143.18-12.06L143.18-12.06Q143.18-14.79 142.46-17.16 141.74-19.53 140.26-21 138.78-22.46 136.54-22.46L136.54-22.46Q134.22-22.46 132.74-21 131.26-19.53 130.56-17.16 129.85-14.79 129.85-12.06L129.85-12.06Q129.85-9.35 130.57-6.97 131.29-4.59 132.77-3.13 134.24-1.66 136.49-1.66L136.49-1.66Q138.78-1.66 140.26-3.13 141.74-4.59 142.46-6.96 143.18-9.33 143.18-12.06ZM169.13-23.95L169.13-18.99 167.18-18.99Q166.71-19.56 166.06-19.96 165.42-20.36 164.49-20.36L164.49-20.36Q163.29-20.36 162.04-19.53 160.78-18.7 159.48-17.26L159.48-17.26 159.48-3.2Q159.48-2.15 160.53-2.1L160.53-2.1 163.83-1.95 163.83 0 151.33 0 151.33-1.9 153.8-2.1Q154.24-2.15 154.54-2.44 154.85-2.73 154.85-3.2L154.85-3.2 154.85-20.56 151.23-20.56 151.23-22.19 157.43-24.1 159.48-24.1 159.48-19.65Q160.22-20.46 161.32-21.66 162.41-22.85 163.66-23.78 164.9-24.71 166.08-24.71L166.08-24.71Q166.86-24.71 167.76-24.46 168.66-24.22 169.13-23.95L169.13-23.95ZM183.14-1.95L183.14 0 170.98 0 170.98-1.95 173.64-2.1Q173.98-2.1 174.36-2.47 174.74-2.83 174.74-3.15L174.74-3.15 174.74-33.25 170.93-33.25 170.93-34.91 177.33-36.84 179.38-36.84 179.38-3.15Q179.38-2.83 179.75-2.47 180.11-2.1 180.43-2.1L180.43-2.1 183.14-1.95ZM211.38-1.95L211.38 0 203.52 0 203.52-2.66Q201.81-1.34 199.88-0.37 197.96 0.61 195.78 0.61L195.78 0.61Q193.27 0.61 191.45-0.45 189.63-1.51 188.47-3.27 187.31-5.03 186.75-7.15 186.19-9.28 186.19-11.4L186.19-11.4Q186.19-14.79 187.58-17.83 188.97-20.87 191.8-22.79 194.64-24.71 198.93-24.71L198.93-24.71Q200.13-24.71 201.53-24.48 202.94-24.24 203.52-24.1L203.52-24.1 203.52-33.25 199.74-33.25 199.74-34.91 206.18-36.84 208.19-36.84 208.19-3.2Q208.19-2.17 209.24-2.1L209.24-2.1 211.38-1.95ZM203.52-4.54L203.52-4.54 203.52-21.56Q202.89-21.78 201.63-22.03 200.37-22.29 199.27-22.29L199.27-22.29Q195.56-22.29 193.34-19.54 191.12-16.8 191.12-12.26L191.12-12.26Q191.12-8.18 193.02-5.49 194.93-2.81 198.37-2.81L198.37-2.81Q199.88-2.81 201.22-3.38 202.55-3.96 203.52-4.54Z" opacity="1" transform="matrix(1,0,0,1,0,0)" fill="#000000" class="wordmark-text-0" data-fill-palette-color="primary" id="text-0"></path></svg></g></svg></g><g transform="matrix(1,0,0,1,0,39.54619922321949)"><svg viewBox="0 0 192 11.515691803875193" height="11.515691803875193" width="192"><g transform="matrix(1,0,0,1,0,0)"><svg width="192" viewBox="1.25 -36.84 805.07 48.290000000000006" height="11.515691803875193" data-palette-color="#aaaaaa"><path d="M25.56-33.54L25.56-25.61 22.61-25.61 21.9-30.2Q21.83-30.57 21.61-30.83 21.39-31.1 21.04-31.1L21.04-31.1 10.4-31.1 10.4-18.09 18.04-18.09Q18.38-18.09 18.65-18.42 18.92-18.75 18.95-18.99L18.95-18.99 19.41-22.51 21.9-22.51 21.9-11.25 19.41-11.25 18.95-14.75Q18.92-15.01 18.64-15.33 18.36-15.65 18.04-15.65L18.04-15.65 10.4-15.65 10.4-3.44Q10.4-3.08 10.66-2.73 10.91-2.39 11.45-2.34L11.45-2.34 14.79-2.15 14.79 0 1.66 0 1.66-2.15 4.3-2.34Q4.83-2.39 5.09-2.73 5.35-3.08 5.35-3.44L5.35-3.44 5.35-30.1Q5.35-30.47 5.09-30.82 4.83-31.18 4.3-31.2L4.3-31.2 1.25-31.4 1.25-33.54 25.56-33.54ZM37.94-32.35L37.94-32.35Q37.94-31.08 37.06-30.16 36.18-29.25 34.91-29.25L34.91-29.25Q33.64-29.25 32.72-30.16 31.81-31.08 31.81-32.35L31.81-32.35Q31.81-33.64 32.72-34.52 33.64-35.4 34.91-35.4L34.91-35.4Q36.18-35.4 37.06-34.52 37.94-33.64 37.94-32.35ZM40.5-1.95L40.5 0 28.76 0 28.76-1.95 31.2-2.1Q32.25-2.17 32.25-3.2L32.25-3.2 32.25-21.04 28.81-21.04 28.81-22.8 34.91-24.71 36.89-24.71 36.89-3.2Q36.89-2.73 37.19-2.44 37.5-2.15 37.94-2.1L37.94-2.1 40.5-1.95ZM69.55-1.95L69.55 0 58.52 0 58.52-1.95 60.62-2.1Q61.05-2.15 61.36-2.44 61.66-2.73 61.66-3.2L61.66-3.2 61.66-16.21Q61.66-18.58 60.57-19.81 59.47-21.04 56.86-21.04L56.86-21.04Q55.44-21.04 54.04-20.64 52.63-20.24 51.36-19.6L51.36-19.6 51.36-3.2Q51.36-2.17 52.41-2.1L52.41-2.1 54.51-1.95 54.51 0 43.21 0 43.21-1.95 45.65-2.1Q46.7-2.17 46.7-3.2L46.7-3.2 46.7-20.56 43.21-20.56 43.21-22.19 49.31-24.1 51.36-24.1 51.36-21.61Q53.46-22.8 55.67-23.75 57.88-24.71 59.61-24.71L59.61-24.71Q62.89-24.71 64.59-22.67 66.3-20.63 66.3-16.99L66.3-16.99 66.3-3.2Q66.3-2.73 66.61-2.44 66.91-2.15 67.35-2.1L67.35-2.1 69.55-1.95ZM97.45-1.95L97.45 0 89.59 0 89.59-2.66Q87.88-1.34 85.95-0.37 84.03 0.61 81.85 0.61L81.85 0.61Q79.34 0.61 77.52-0.45 75.7-1.51 74.54-3.27 73.38-5.03 72.82-7.15 72.26-9.28 72.26-11.4L72.26-11.4Q72.26-14.79 73.65-17.83 75.04-20.87 77.87-22.79 80.71-24.71 85-24.71L85-24.71Q86.2-24.71 87.6-24.48 89.01-24.24 89.59-24.1L89.59-24.1 89.59-33.25 85.81-33.25 85.81-34.91 92.25-36.84 94.26-36.84 94.26-3.2Q94.26-2.17 95.31-2.1L95.31-2.1 97.45-1.95ZM89.59-4.54L89.59-4.54 89.59-21.56Q88.96-21.78 87.7-22.03 86.44-22.29 85.34-22.29L85.34-22.29Q81.63-22.29 79.41-19.54 77.19-16.8 77.19-12.26L77.19-12.26Q77.19-8.18 79.09-5.49 81-2.81 84.44-2.81L84.44-2.81Q85.95-2.81 87.28-3.38 88.62-3.96 89.59-4.54ZM147.25-24.1L147.25-22.14 144.64-21.85 135.05 1.54Q134.73 2.34 134.06 3.85 133.39 5.35 132.47 6.92 131.55 8.5 130.51 9.55L130.51 9.55Q129.6 10.45 128.52 10.95 127.43 11.45 126.16 11.45L126.16 11.45Q124.38 11.45 123.44 10.58 122.5 9.72 122.5 8.59L122.5 8.59Q122.5 6.93 124.11 5.59L124.11 5.59 128.8 7.74Q129.63 6.91 130.46 5.49 131.29 4.08 131.96 2.56 132.63 1.05 133-0.05L133-0.05 124.5-21.85 121.74-22.14 121.74-24.1 132.8-24.1 132.8-22.14 130.41-22Q129.6-21.92 129.6-21.19L129.6-21.19Q129.6-21 129.65-20.9L129.65-20.9 135.46-6.15 141.39-20.9Q141.47-21.04 141.47-21.22L141.47-21.22Q141.47-21.95 140.71-22L140.71-22 138.34-22.14 138.34-24.1 147.25-24.1ZM173.23-12.01L173.23-12.01Q173.23-8.47 171.76-5.6 170.3-2.73 167.62-1.06 164.95 0.61 161.29 0.61L161.29 0.61Q157.65 0.61 154.99-1.05 152.33-2.71 150.89-5.57 149.45-8.42 149.45-12.01L149.45-12.01Q149.45-15.58 150.9-18.46 152.35-21.34 155.05-23.02 157.75-24.71 161.44-24.71L161.44-24.71Q165.17-24.71 167.81-23 170.44-21.29 171.84-18.41 173.23-15.53 173.23-12.01ZM168.03-12.06L168.03-12.06Q168.03-14.79 167.31-17.16 166.59-19.53 165.11-21 163.63-22.46 161.39-22.46L161.39-22.46Q159.07-22.46 157.59-21 156.11-19.53 155.4-17.16 154.7-14.79 154.7-12.06L154.7-12.06Q154.7-9.35 155.42-6.97 156.14-4.59 157.61-3.13 159.09-1.66 161.34-1.66L161.34-1.66Q163.63-1.66 165.11-3.13 166.59-4.59 167.31-6.96 168.03-9.33 168.03-12.06ZM202.33-1.95L202.33 0 194.39 0 194.39-2.86Q193.54-2.2 192.22-1.39 190.9-0.59 189.39 0.01 187.87 0.61 186.38 0.61L186.38 0.61Q183.16 0.61 181.32-1.33 179.47-3.27 179.47-7.5L179.47-7.5 179.47-21.04 175.98-21.04 175.98-22.75 182.14-24.71 184.14-24.71 184.14-8.45Q184.14-5.79 185.22-4.3 186.31-2.81 188.97-2.81L188.97-2.81Q190.51-2.81 192-3.33 193.49-3.86 194.39-4.3L194.39-4.3 194.39-21.04 190.88-21.04 190.88-22.75 196.98-24.71 199.03-24.71 199.03-3.2Q199.03-2.73 199.36-2.44 199.69-2.15 200.13-2.1L200.13-2.1 202.33-1.95ZM222.42-23.95L222.42-18.99 220.46-18.99Q220-19.56 219.35-19.96 218.71-20.36 217.78-20.36L217.78-20.36Q216.58-20.36 215.32-19.53 214.07-18.7 212.77-17.26L212.77-17.26 212.77-3.2Q212.77-2.15 213.82-2.1L213.82-2.1 217.12-1.95 217.12 0 204.62 0 204.62-1.9 207.08-2.1Q207.52-2.15 207.83-2.44 208.13-2.73 208.13-3.2L208.13-3.2 208.13-20.56 204.52-20.56 204.52-22.19 210.72-24.1 212.77-24.1 212.77-19.65Q213.51-20.46 214.6-21.66 215.7-22.85 216.95-23.78 218.19-24.71 219.36-24.71L219.36-24.71Q220.15-24.71 221.05-24.46 221.95-24.22 222.42-23.95L222.42-23.95ZM272.34-1.95L272.34 0 264.48 0 264.48-2.66Q262.77-1.34 260.84-0.37 258.91 0.61 256.74 0.61L256.74 0.61Q254.22 0.61 252.4-0.45 250.59-1.51 249.43-3.27 248.27-5.03 247.7-7.15 247.14-9.28 247.14-11.4L247.14-11.4Q247.14-14.79 248.53-17.83 249.93-20.87 252.76-22.79 255.59-24.71 259.89-24.71L259.89-24.71Q261.08-24.71 262.49-24.48 263.89-24.24 264.48-24.1L264.48-24.1 264.48-33.25 260.69-33.25 260.69-34.91 267.14-36.84 269.14-36.84 269.14-3.2Q269.14-2.17 270.19-2.1L270.19-2.1 272.34-1.95ZM264.48-4.54L264.48-4.54 264.48-21.56Q263.84-21.78 262.58-22.03 261.33-22.29 260.23-22.29L260.23-22.29Q256.52-22.29 254.3-19.54 252.07-16.8 252.07-12.26L252.07-12.26Q252.07-8.18 253.98-5.49 255.88-2.81 259.33-2.81L259.33-2.81Q260.84-2.81 262.17-3.38 263.5-3.96 264.48-4.54ZM292.67-23.95L292.67-18.99 290.72-18.99Q290.26-19.56 289.61-19.96 288.96-20.36 288.03-20.36L288.03-20.36Q286.84-20.36 285.58-19.53 284.32-18.7 283.03-17.26L283.03-17.26 283.03-3.2Q283.03-2.15 284.08-2.1L284.08-2.1 287.37-1.95 287.37 0 274.87 0 274.87-1.9 277.34-2.1Q277.78-2.15 278.09-2.44 278.39-2.73 278.39-3.2L278.39-3.2 278.39-20.56 274.78-20.56 274.78-22.19 280.98-24.1 283.03-24.1 283.03-19.65Q283.76-20.46 284.86-21.66 285.96-22.85 287.2-23.78 288.45-24.71 289.62-24.71L289.62-24.71Q290.4-24.71 291.31-24.46 292.21-24.22 292.67-23.95L292.67-23.95ZM315.99-5.54L315.99-2.49Q313.89-1.2 311.46-0.29 309.03 0.61 306.49 0.61L306.49 0.61Q303.46 0.61 300.81-0.74 298.16-2.1 296.53-4.86 294.89-7.62 294.89-11.79L294.89-11.79Q294.89-15.7 296.41-18.6 297.92-21.51 300.58-23.11 303.24-24.71 306.64-24.71L306.64-24.71Q311.3-24.71 313.64-21.81 315.99-18.92 315.99-14.45L315.99-14.45Q315.99-14.21 315.99-13.81 315.99-13.4 315.94-13.06L315.94-13.06 299.73-13.06Q299.73-11.16 300.13-9.27 300.53-7.37 301.48-5.83 302.44-4.3 304.05-3.37 305.66-2.44 308.08-2.44L308.08-2.44Q310.22-2.44 312.26-3.43 314.3-4.42 315.99-5.54L315.99-5.54ZM299.99-15.31L310.98-15.31 310.98-16.41Q310.98-18.87 309.8-20.56 308.61-22.24 306.12-22.24L306.12-22.24Q303.66-22.24 301.92-20.39 300.19-18.53 299.99-15.31L299.99-15.31ZM342.3-1.95L342.3 0 334.9 0 334.24-2.95Q334.24-2.95 333.5-2.42 332.76-1.88 331.53-1.17 330.31-0.46 328.84 0.07 327.36 0.61 325.9 0.61L325.9 0.61Q323.19 0.61 321.29-1.2 319.4-3 319.4-6.15L319.4-6.15Q319.4-7.54 319.9-8.74 320.4-9.94 321.9-11.02 323.41-12.11 326.37-13.15 329.34-14.18 334.24-15.26L334.24-15.26 334.24-17.41Q334.24-22.34 329.58-22.34L329.58-22.34Q328.29-22.34 327.35-22.09 326.41-21.85 326.04-21.7L326.04-21.7 326.04-17.36 322.4-17.36Q321.72-17.36 321.13-17.61 320.55-17.87 320.55-18.8L320.55-18.8Q320.55-20.85 322.11-22.16 323.67-23.46 326.08-24.08 328.48-24.71 330.95-24.71L330.95-24.71Q334.05-24.71 335.76-23.74 337.47-22.78 338.15-21.08 338.83-19.38 338.83-17.21L338.83-17.21 338.83-3.2Q338.83-2.73 339.14-2.44 339.45-2.15 339.88-2.1L339.88-2.1 342.3-1.95ZM334.24-4.71L334.24-4.71 334.24-13.35Q330.88-12.52 328.89-11.68 326.9-10.84 325.92-10 324.94-9.16 324.64-8.29 324.33-7.42 324.33-6.49L324.33-6.49Q324.33-4.96 325.32-3.65 326.31-2.34 328.09-2.34L328.09-2.34Q329.09-2.34 330.17-2.7 331.24-3.05 332.17-3.53 333.1-4 333.67-4.36 334.24-4.71 334.24-4.71ZM384.54-1.95L384.54 0 373.33 0 373.33-1.95 375.43-2.1Q376.48-2.17 376.48-3.2L376.48-3.2 376.48-15.94Q376.48-18.26 375.51-19.65 374.55-21.04 372.04-21.04L372.04-21.04Q370.79-21.04 369.31-20.65 367.84-20.26 366.69-19.65L366.69-19.65 366.69-3.2Q366.69-2.17 367.74-2.1L367.74-2.1 369.84-1.95 369.84 0 358.88 0 358.88-1.95 360.98-2.1Q362.03-2.17 362.03-3.2L362.03-3.2 362.03-16.26Q362.03-18.38 361.02-19.71 360.02-21.04 357.63-21.04L357.63-21.04Q356.22-21.04 354.68-20.57 353.14-20.09 352.28-19.6L352.28-19.6 352.28-3.2Q352.28-2.17 353.33-2.1L353.33-2.1 355.43-1.95 355.43 0 344.13 0 344.13-1.95 346.57-2.1Q347.62-2.17 347.62-3.2L347.62-3.2 347.62-20.56 344.18-20.56 344.18-22.19 350.23-24.1 352.28-24.1 352.28-21.61Q353.41-22.29 354.81-23 356.22-23.71 357.68-24.21 359.14-24.71 360.44-24.71L360.44-24.71Q362.61-24.71 363.95-23.6 365.3-22.49 365.93-21.24L365.93-21.24Q366.93-21.88 368.47-22.69 370.01-23.51 371.66-24.11 373.3-24.71 374.62-24.71L374.62-24.71Q377.26-24.71 378.65-23.5 380.04-22.29 380.56-20.52 381.07-18.75 381.07-17.04L381.07-17.04 381.07-3.2Q381.07-2.73 381.37-2.44 381.68-2.15 382.12-2.1L382.12-2.1 384.54-1.95ZM427.18-23.95L427.18-18.99 425.23-18.99Q424.76-19.56 424.12-19.96 423.47-20.36 422.54-20.36L422.54-20.36Q421.35-20.36 420.09-19.53 418.83-18.7 417.54-17.26L417.54-17.26 417.54-3.2Q417.54-2.15 418.59-2.1L418.59-2.1 421.88-1.95 421.88 0 409.38 0 409.38-1.9 411.85-2.1Q412.29-2.15 412.59-2.44 412.9-2.73 412.9-3.2L412.9-3.2 412.9-20.56 409.29-20.56 409.29-22.19 415.49-24.1 417.54-24.1 417.54-19.65Q418.27-20.46 419.37-21.66 420.47-22.85 421.71-23.78 422.96-24.71 424.13-24.71L424.13-24.71Q424.91-24.71 425.81-24.46 426.72-24.22 427.18-23.95L427.18-23.95ZM438.58-32.35L438.58-32.35Q438.58-31.08 437.7-30.16 436.82-29.25 435.55-29.25L435.55-29.25Q434.28-29.25 433.37-30.16 432.45-31.08 432.45-32.35L432.45-32.35Q432.45-33.64 433.37-34.52 434.28-35.4 435.55-35.4L435.55-35.4Q436.82-35.4 437.7-34.52 438.58-33.64 438.58-32.35ZM441.14-1.95L441.14 0 429.4 0 429.4-1.95 431.84-2.1Q432.89-2.17 432.89-3.2L432.89-3.2 432.89-21.04 429.45-21.04 429.45-22.8 435.55-24.71 437.53-24.71 437.53-3.2Q437.53-2.73 437.84-2.44 438.14-2.15 438.58-2.1L438.58-2.1 441.14-1.95ZM469.75-1.95L469.75 0 461.89 0 461.89-2.66Q460.18-1.34 458.26-0.37 456.33 0.61 454.15 0.61L454.15 0.61Q451.64 0.61 449.82-0.45 448-1.51 446.84-3.27 445.68-5.03 445.12-7.15 444.56-9.28 444.56-11.4L444.56-11.4Q444.56-14.79 445.95-17.83 447.34-20.87 450.17-22.79 453.01-24.71 457.3-24.71L457.3-24.71Q458.5-24.71 459.9-24.48 461.31-24.24 461.89-24.1L461.89-24.1 461.89-33.25 458.11-33.25 458.11-34.91 464.55-36.84 466.56-36.84 466.56-3.2Q466.56-2.17 467.61-2.1L467.61-2.1 469.75-1.95ZM461.89-4.54L461.89-4.54 461.89-21.56Q461.26-21.78 460-22.03 458.74-22.29 457.65-22.29L457.65-22.29Q453.93-22.29 451.71-19.54 449.49-16.8 449.49-12.26L449.49-12.26Q449.49-8.18 451.4-5.49 453.3-2.81 456.74-2.81L456.74-2.81Q458.26-2.81 459.59-3.38 460.92-3.96 461.89-4.54ZM493.85-5.54L493.85-2.49Q491.75-1.2 489.32-0.29 486.89 0.61 484.35 0.61L484.35 0.61Q481.32 0.61 478.68-0.74 476.03-2.1 474.39-4.86 472.76-7.62 472.76-11.79L472.76-11.79Q472.76-15.7 474.27-18.6 475.78-21.51 478.44-23.11 481.1-24.71 484.5-24.71L484.5-24.71Q489.16-24.71 491.51-21.81 493.85-18.92 493.85-14.45L493.85-14.45Q493.85-14.21 493.85-13.81 493.85-13.4 493.8-13.06L493.8-13.06 477.59-13.06Q477.59-11.16 477.99-9.27 478.39-7.37 479.35-5.83 480.3-4.3 481.91-3.37 483.52-2.44 485.94-2.44L485.94-2.44Q488.09-2.44 490.13-3.43 492.16-4.42 493.85-5.54L493.85-5.54ZM477.86-15.31L488.84-15.31 488.84-16.41Q488.84-18.87 487.66-20.56 486.48-22.24 483.99-22.24L483.99-22.24Q481.52-22.24 479.79-20.39 478.05-18.53 477.86-15.31L477.86-15.31ZM542.67-1.95L542.67 0 535.27 0 534.62-2.95Q534.62-2.95 533.87-2.42 533.13-1.88 531.91-1.17 530.68-0.46 529.21 0.07 527.73 0.61 526.27 0.61L526.27 0.61Q523.56 0.61 521.66-1.2 519.77-3 519.77-6.15L519.77-6.15Q519.77-7.54 520.27-8.74 520.77-9.94 522.27-11.02 523.78-12.11 526.74-13.15 529.71-14.18 534.62-15.26L534.62-15.26 534.62-17.41Q534.62-22.34 529.95-22.34L529.95-22.34Q528.66-22.34 527.72-22.09 526.78-21.85 526.41-21.7L526.41-21.7 526.41-17.36 522.77-17.36Q522.09-17.36 521.51-17.61 520.92-17.87 520.92-18.8L520.92-18.8Q520.92-20.85 522.48-22.16 524.04-23.46 526.45-24.08 528.85-24.71 531.32-24.71L531.32-24.71Q534.42-24.71 536.13-23.74 537.84-22.78 538.52-21.08 539.21-19.38 539.21-17.21L539.21-17.21 539.21-3.2Q539.21-2.73 539.51-2.44 539.82-2.15 540.26-2.1L540.26-2.1 542.67-1.95ZM534.62-4.71L534.62-4.71 534.62-13.35Q531.25-12.52 529.26-11.68 527.27-10.84 526.29-10 525.31-9.16 525.01-8.29 524.7-7.42 524.7-6.49L524.7-6.49Q524.7-4.96 525.69-3.65 526.68-2.34 528.46-2.34L528.46-2.34Q529.46-2.34 530.54-2.7 531.61-3.05 532.54-3.53 533.47-4 534.04-4.36 534.62-4.71 534.62-4.71ZM560.15-3.05L560.15-3.05 560.15-1.05Q560.15-1.05 559.21-0.63 558.27-0.22 556.74 0.2 555.22 0.61 553.41 0.61L553.41 0.61Q550.6 0.61 549.32-0.72 548.04-2.05 548.04-5L548.04-5 548.04-21.61 544.84-21.61 544.84-23.24 548.26-24.85 550.51-30.15 552.7-30.15 552.7-24.1 559.76-24.1 559.76-21.61 552.7-21.61 552.7-7.64Q552.7-4.66 553.7-3.43 554.71-2.2 556.71-2.2L556.71-2.2Q558.17-2.2 559.16-2.62 560.15-3.05 560.15-3.05ZM609.49-9.25L612.39-9.25 612.39-1.15Q612.27-1.1 610.84-0.61 609.41-0.12 607.19 0.34 604.97 0.81 602.41 0.81L602.41 0.81Q598.21 0.81 594.96-0.65 591.71-2.1 589.48-4.59 587.24-7.08 586.1-10.24 584.95-13.4 584.95-16.85L584.95-16.85Q584.95-22.02 587.15-25.96 589.34-29.91 593.29-32.13 597.23-34.35 602.45-34.35L602.45-34.35Q604.9-34.35 607.13-33.84 609.36-33.33 612.39-32.4L612.39-32.4 612.39-24.56 609.39-24.56 608.66-29.1Q608.56-29.52 608.29-29.83 608.02-30.15 607.8-30.25L607.8-30.25 607.61-30.35Q606.97-30.64 605.7-31.09 604.43-31.54 602.7-31.54L602.7-31.54Q599.31-31.54 596.58-29.87 593.86-28.2 592.27-24.93 590.69-21.66 590.69-16.85L590.69-16.85Q590.69-9.86 594.06-5.91 597.43-1.95 603.36-1.95L603.36-1.95Q605.12-1.95 606.21-2.37 607.31-2.78 607.39-2.81L607.39-2.81Q608.17-3.1 608.34-3.81L608.34-3.81 609.49-9.25ZM638.95-1.95L638.95 0 631.55 0 630.89-2.95Q630.89-2.95 630.15-2.42 629.41-1.88 628.18-1.17 626.96-0.46 625.49 0.07 624.01 0.61 622.54 0.61L622.54 0.61Q619.83 0.61 617.94-1.2 616.05-3 616.05-6.15L616.05-6.15Q616.05-7.54 616.55-8.74 617.05-9.94 618.55-11.02 620.05-12.11 623.02-13.15 625.99-14.18 630.89-15.26L630.89-15.26 630.89-17.41Q630.89-22.34 626.23-22.34L626.23-22.34Q624.94-22.34 624-22.09 623.06-21.85 622.69-21.7L622.69-21.7 622.69-17.36 619.05-17.36Q618.37-17.36 617.78-17.61 617.2-17.87 617.2-18.8L617.2-18.8Q617.2-20.85 618.76-22.16 620.32-23.46 622.73-24.08 625.13-24.71 627.6-24.71L627.6-24.71Q630.7-24.71 632.41-23.74 634.12-22.78 634.8-21.08 635.48-19.38 635.48-17.21L635.48-17.21 635.48-3.2Q635.48-2.73 635.79-2.44 636.09-2.15 636.53-2.1L636.53-2.1 638.95-1.95ZM630.89-4.71L630.89-4.71 630.89-13.35Q627.53-12.52 625.54-11.68 623.55-10.84 622.57-10 621.59-9.16 621.29-8.29 620.98-7.42 620.98-6.49L620.98-6.49Q620.98-4.96 621.97-3.65 622.96-2.34 624.74-2.34L624.74-2.34Q625.74-2.34 626.82-2.7 627.89-3.05 628.82-3.53 629.75-4 630.32-4.36 630.89-4.71 630.89-4.71ZM658.82-23.95L658.82-18.99 656.87-18.99Q656.4-19.56 655.76-19.96 655.11-20.36 654.18-20.36L654.18-20.36Q652.99-20.36 651.73-19.53 650.47-18.7 649.18-17.26L649.18-17.26 649.18-3.2Q649.18-2.15 650.23-2.1L650.23-2.1 653.52-1.95 653.52 0 641.02 0 641.02-1.9 643.49-2.1Q643.93-2.15 644.23-2.44 644.54-2.73 644.54-3.2L644.54-3.2 644.54-20.56 640.93-20.56 640.93-22.19 647.13-24.1 649.18-24.1 649.18-19.65Q649.91-20.46 651.01-21.66 652.11-22.85 653.35-23.78 654.6-24.71 655.77-24.71L655.77-24.71Q656.55-24.71 657.45-24.46 658.36-24.22 658.82-23.95L658.82-23.95ZM705.38-33.54L705.38-31.4 702.33-30.81 694.68 0.81 691.02 0.81 682.67-26.9 674.49 0.81 670.88 0.81 662.73-30.81 659.82-31.4 659.82-33.54 671.27-33.54 671.27-31.4 668.29-31.1Q667.73-31.03 667.73-30.37L667.73-30.37Q667.73-30.3 667.78-30.1L667.78-30.1 673.74-7.54 681.57-33.54 685.43-33.54 693.49-6.74 699.03-30.1Q699.05-30.15 699.05-30.27L699.05-30.27Q699.05-31.03 698.32-31.1L698.32-31.1 695.17-31.4 695.17-33.54 705.38-33.54ZM731.38-12.01L731.38-12.01Q731.38-8.47 729.91-5.6 728.45-2.73 725.77-1.06 723.1 0.61 719.44 0.61L719.44 0.61Q715.8 0.61 713.14-1.05 710.48-2.71 709.04-5.57 707.6-8.42 707.6-12.01L707.6-12.01Q707.6-15.58 709.05-18.46 710.5-21.34 713.2-23.02 715.9-24.71 719.58-24.71L719.58-24.71Q723.32-24.71 725.96-23 728.59-21.29 729.98-18.41 731.38-15.53 731.38-12.01ZM726.18-12.06L726.18-12.06Q726.18-14.79 725.45-17.16 724.73-19.53 723.26-21 721.78-22.46 719.53-22.46L719.53-22.46Q717.22-22.46 715.74-21 714.26-19.53 713.55-17.16 712.85-14.79 712.85-12.06L712.85-12.06Q712.85-9.35 713.57-6.97 714.29-4.59 715.76-3.13 717.24-1.66 719.49-1.66L719.49-1.66Q721.78-1.66 723.26-3.13 724.73-4.59 725.45-6.96 726.18-9.33 726.18-12.06ZM752.12-23.95L752.12-18.99 750.17-18.99Q749.71-19.56 749.06-19.96 748.41-20.36 747.49-20.36L747.49-20.36Q746.29-20.36 745.03-19.53 743.78-18.7 742.48-17.26L742.48-17.26 742.48-3.2Q742.48-2.15 743.53-2.1L743.53-2.1 746.83-1.95 746.83 0 734.33 0 734.33-1.9 736.79-2.1Q737.23-2.15 737.54-2.44 737.84-2.73 737.84-3.2L737.84-3.2 737.84-20.56 734.23-20.56 734.23-22.19 740.43-24.1 742.48-24.1 742.48-19.65Q743.21-20.46 744.31-21.66 745.41-22.85 746.66-23.78 747.9-24.71 749.07-24.71L749.07-24.71Q749.85-24.71 750.76-24.46 751.66-24.22 752.12-23.95L752.12-23.95ZM766.14-1.95L766.14 0 753.98 0 753.98-1.95 756.64-2.1Q756.98-2.1 757.36-2.47 757.74-2.83 757.74-3.15L757.74-3.15 757.74-33.25 753.93-33.25 753.93-34.91 760.33-36.84 762.38-36.84 762.38-3.15Q762.38-2.83 762.74-2.47 763.11-2.1 763.43-2.1L763.43-2.1 766.14-1.95ZM794.38-1.95L794.38 0 786.52 0 786.52-2.66Q784.81-1.34 782.88-0.37 780.95 0.61 778.78 0.61L778.78 0.61Q776.27 0.61 774.45-0.45 772.63-1.51 771.47-3.27 770.31-5.03 769.75-7.15 769.19-9.28 769.19-11.4L769.19-11.4Q769.19-14.79 770.58-17.83 771.97-20.87 774.8-22.79 777.63-24.71 781.93-24.71L781.93-24.71Q783.13-24.71 784.53-24.48 785.93-24.24 786.52-24.1L786.52-24.1 786.52-33.25 782.73-33.25 782.73-34.91 789.18-36.84 791.18-36.84 791.18-3.2Q791.18-2.17 792.23-2.1L792.23-2.1 794.38-1.95ZM786.52-4.54L786.52-4.54 786.52-21.56Q785.88-21.78 784.63-22.03 783.37-22.29 782.27-22.29L782.27-22.29Q778.56-22.29 776.34-19.54 774.12-16.8 774.12-12.26L774.12-12.26Q774.12-8.18 776.02-5.49 777.93-2.81 781.37-2.81L781.37-2.81Q782.88-2.81 784.21-3.38 785.54-3.96 786.52-4.54ZM806.32-3.86L806.32-3.86Q806.32-2.25 805.21-1.12 804.09 0 802.48 0L802.48 0Q800.85 0 799.74-1.12 798.63-2.25 798.63-3.86L798.63-3.86Q798.63-5.47 799.74-6.58 800.85-7.69 802.48-7.69L802.48-7.69Q804.09-7.69 805.21-6.58 806.32-5.47 806.32-3.86Z" opacity="1" transform="matrix(1,0,0,1,0,0)" fill="#000000" class="slogan-text-1" data-fill-palette-color="secondary" id="text-1"></path></svg></g></svg></g></svg></g></svg></g><g transform="matrix(1,0,0,1,36.672,0)"><svg viewBox="0 0 118.656 45.62295077566784" height="45.62295077566784" width="118.656"><g><svg version="1.0" xmlns="http://www.w3.org/2000/svg" xmlns:xlink="http://www.w3.org/1999/xlink" x="0" y="0" viewBox="0 0.00023700810086448463 100 38.449762991899135" enable-background="new 0 0 100 38.449" xml:space="preserve" id="icon-0" width="118.656" height="45.62295077566784" class="icon-icon-0" data-fill-palette-color="accent"><path d="M99.929 15.958A4.3 4.3 0 0 0 99.565 14.902L80.803 0.005H43.053C42.179-0.049 41.705 0.364 41.29 0.846L28.672 13.487 1.078 18.071C0.694 18.406 0.309 18.735 0 19.599L0.059 29.092C0.657 30.613 1.065 30.416 1.518 30.628H6.83C6.83 17.723 26.055 17.772 26.055 30.628H75.076C75.076 17.695 94.156 17.722 94.156 30.628H98.51C99.241 30.561 99.652 29.915 100 29.158zM59.408 15.346H33.254C32.259 14.953 32.124 14.358 32.538 13.633L41.941 4.355C42.153 4.175 42.32 3.927 42.688 3.981H59.408zM86.488 15.348H62.516V3.983H76.582C76.95 3.928 77.117 4.176 77.329 4.357L85.387 12.472C86.13 13.591 87.623 15.122 86.488 15.348" fill="#000000" data-fill-palette-color="accent"></path><path d="M16.396 22.843A7.803 7.803 0 1 0 16.396 38.45 7.804 7.804 0 0 0 16.396 22.843M16.396 33.921A3.294 3.294 0 1 1 16.396 27.333 3.294 3.294 0 0 1 16.396 33.92" fill="#000000" data-fill-palette-color="accent"></path><path d="M84.615 22.839A7.804 7.804 0 1 0 84.615 38.447 7.804 7.804 0 0 0 84.615 22.84M84.615 33.921A3.294 3.294 0 1 1 84.615 27.333 3.294 3.294 0 0 1 84.615 33.92" fill="#000000" data-fill-palette-color="accent"></path></svg></g></svg></g><g></g></svg></g></svg></g></svg></g></svg></g><defs></defs></svg><rect width="320" height="360" fill="none" stroke="none" visibility="hidden"></rect></g></svg></g></svg>